<?xml version="1.0" encoding="utf-8"?>
<!-- Generator: Adobe Illustrator 23.0.3, SVG Export Plug-In . SVG Version: 6.00 Build 0)  -->
<svg version="1.1"
	 id="spiraplan" inkscape:export-filename="C:\subversion\projects\marketing\Logos\2017-01 spiraPlan logo dark large_no background.png" inkscape:export-xdpi="90" inkscape:export-ydpi="90" inkscape:version="0.91 r13725" sodipodi:docname="2017-01 spiraPlan logo.svg" xmlns:cc="http://creativecommons.org/ns#" xmlns:dc="http://purl.org/dc/elements/1.1/" xmlns:inkscape="http://www.inkscape.org/namespaces/inkscape" xmlns:rdf="http://www.w3.org/1999/02/22-rdf-syntax-ns#" xmlns:sodipodi="http://sodipodi.sourceforge.net/DTD/sodipodi-0.dtd" xmlns:svg="http://www.w3.org/2000/svg"
	 xmlns="http://www.w3.org/2000/svg" xmlns:xlink="http://www.w3.org/1999/xlink" x="0px" y="0px" viewBox="0 0 925 378.4"
	 style="enable-background:new 0 0 925 378.4;" xml:space="preserve">
<style type="text/css">
	.st0{fill:#F1A42B;}
	.st1{fill:#FDCB26;}
</style>
<path id="path9046" inkscape:connector-curvature="0" class="st0" d="M458,130.6c-24.3-57.4-104.9-95.3-195.6-92
	c-82.9,3.1-155.7,40.1-182.5,92.6C120.7,95.5,187.5,72.7,259.5,70C341,67.1,417.1,90.3,458,130.6z"/>
<path id="path9051" inkscape:connector-curvature="0" class="st1" d="M853.8,264.4c-25.1,57.3-104.2,95-192.2,91.6
	c-80.4-3.3-150.1-40.4-174.8-92.9c38.7,35.8,103,58.6,172.8,61.5C738.7,327.7,813.1,304.6,853.8,264.4z"/>
<path d="M113.1,161.1c-0.8,1-1.8,2.1-3,3.3c-1.2,1.3-1.9,2.1-2.3,2.4c-1.6-2.4-4.3-4.3-8.1-5.8c-3.8-1.5-7.5-2.3-11-2.3
	c-1.9,0-4,0.3-6.4,1c-2.4,0.6-4.6,1.6-6.6,3c-2,1.4-3.7,3.1-5,5.4c-1.4,2.2-2,4.9-2,8.1c0,3.5,1,6.3,3.1,8.5c2.1,2.1,4.6,4,7.6,5.6
	c3,1.6,6.3,3,9.9,4.3c3.6,1.3,6.9,2.8,9.9,4.5c3,1.7,5.6,4,7.6,6.8c2.1,2.8,3.1,6.3,3.1,10.6c0,3.8-0.8,7.5-2.3,11.2
	c-1.5,3.7-3.7,6.8-6.6,9.5c-2.9,2.7-6.3,4.9-10.4,6.6c-4,1.7-8.6,2.5-13.7,2.5c-4.9,0-10-0.9-15.1-2.6c-5.2-1.7-9.2-4.7-12-8.8
	c1-1,2.1-2.1,3.5-3.5c1.3-1.3,2.2-2.2,2.5-2.5c0.6,1.1,1.8,2.2,3.5,3.3c1.7,1.1,3.6,2.1,5.7,3c2.1,0.9,4.4,1.6,6.7,2.1
	c2.3,0.6,4.5,0.8,6.6,0.8c2.1,0,4.4-0.4,7.1-1.1c2.7-0.7,5.2-1.9,7.6-3.5c2.4-1.6,4.4-3.7,6.1-6.2c1.7-2.5,2.5-5.6,2.5-9.3
	c0-3.7-1-6.6-3.1-8.8c-2.1-2.2-4.6-4.1-7.6-5.6c-3-1.5-6.3-2.9-9.9-4.2c-3.6-1.3-6.9-2.8-9.9-4.5c-3-1.7-5.6-4-7.6-6.7
	c-2.1-2.7-3.1-6.3-3.1-10.7c0-4.6,0.9-8.6,2.6-12c1.7-3.4,4-6.2,6.9-8.5c2.9-2.2,6-3.8,9.4-4.9c3.4-1,6.8-1.5,10.1-1.5
	c3.8,0,8,0.8,12.5,2.4C106.6,154.6,110.3,157.3,113.1,161.1z"/>
<path d="M234.8,192.8c0,7.5-1.4,14.4-4.3,20.8c-2.9,6.4-6.8,12-11.8,16.8s-10.8,8.5-17.4,11.3c-6.6,2.8-13.5,4.2-20.8,4.2
	c-4.6,0-9-0.6-13.1-1.9c-4.1-1.3-7.8-3.1-11.1-5.4c-3.3-2.3-6-5-8.3-8c-2.3-3-4-6.3-5.1-10l-1,12.1l-6.9,55.7h-8.3l16.7-136.5h8.1
	c0,0.3-0.1,1.4-0.2,3.1c-0.2,1.7-0.4,3.8-0.7,6.2c-0.3,2.4-0.6,4.9-1,7.5c-0.3,2.6-0.6,4.9-0.7,6.8c2.1-3.5,4.6-6.8,7.6-10
	c3-3.2,6.4-5.9,10.2-8.2c3.8-2.3,7.9-4.1,12.3-5.5c4.4-1.3,8.9-2,13.7-2c6.2,0,11.9,1.1,17.2,3.2c5.2,2.1,9.7,5.1,13.3,8.9
	c3.7,3.8,6.5,8.3,8.6,13.6C233.8,180.9,234.8,186.6,234.8,192.8z M226.3,193.5c0-4.9-0.9-9.5-2.6-13.8c-1.7-4.3-4.2-8.1-7.3-11.3
	c-3.1-3.3-6.8-5.8-11.1-7.6c-4.3-1.8-9.1-2.7-14.3-2.7c-6,0-11.8,1.2-17.3,3.5c-5.5,2.3-10.3,5.5-14.4,9.5c-4.1,4-7.4,8.7-9.9,14.1
	c-2.5,5.3-3.7,11-3.7,17c0,5.1,0.9,9.8,2.6,14.1c1.7,4.3,4.2,8.1,7.4,11.3c3.2,3.3,6.9,5.8,11.3,7.6c4.4,1.8,9.1,2.7,14.2,2.7
	c6.2,0,12-1.2,17.4-3.5c5.4-2.3,10.2-5.5,14.3-9.5c4.1-4,7.4-8.8,9.8-14.2C225.1,205.3,226.3,199.6,226.3,193.5z"/>
<path d="M262.7,244.3h-8.1l11.4-92.2h8.1L262.7,244.3z"/>
<path d="M351.8,159.9c-5.1,0.2-10,1-14.8,2.6c-4.8,1.6-9.1,3.9-12.9,6.8c-3.8,2.9-7,6.4-9.5,10.5c-2.5,4-4,8.5-4.5,13.5l-6.4,51
	h-8.1l11.4-92.2h6.7c0,0.6-0.1,2.1-0.4,4.5c-0.2,2.4-0.5,4.9-0.7,7.6c-0.2,2.7-0.5,5.2-0.7,7.5c-0.2,2.3-0.4,3.7-0.4,4.2
	c4.6-7.9,10.8-14.2,18.7-18.7s15.8-6.9,23.9-7L351.8,159.9z"/>
<path d="M353.5,203.3c0-7.3,1.5-14.2,4.4-20.6c2.9-6.4,6.9-12.1,11.9-16.9c5-4.8,10.8-8.7,17.3-11.6c6.5-2.9,13.3-4.3,20.5-4.3
	c4.9,0,9.4,0.7,13.6,2c4.1,1.4,7.8,3.2,11,5.6c3.2,2.4,5.9,5.1,8.1,8.2c2.2,3.1,3.8,6.4,4.8,9.9c0.6-4,1.2-7.9,1.8-11.9
	c0.6-4,1.2-7.9,2-11.7h7.4l-11.4,92.2h-8.1l1.4-11.4c0.3-2.1,0.6-4.1,0.8-6.1c0.2-2,0.4-4,0.6-6.1c-3.7,7-9.3,12.9-17,17.9
	c-7.7,4.9-16.6,7.4-26.6,7.4c-6.2,0-11.9-1.1-17.2-3.3c-5.2-2.2-9.7-5.2-13.5-9.1c-3.7-3.8-6.6-8.3-8.7-13.5
	C354.5,214.9,353.5,209.3,353.5,203.3z M361.8,202.1c0,5.1,0.9,9.8,2.6,14.1c1.7,4.3,4.2,8.1,7.3,11.3c3.1,3.3,6.8,5.8,11.2,7.6
	c4.4,1.8,9.1,2.7,14.2,2.7c6,0,11.8-1.2,17.3-3.5c5.5-2.3,10.3-5.5,14.4-9.5c4.1-4,7.4-8.7,9.9-13.9c2.5-5.2,3.7-10.9,3.7-16.9
	c0-5.1-0.9-9.8-2.6-14.2c-1.7-4.4-4.2-8.2-7.4-11.4c-3.2-3.3-6.9-5.8-11.2-7.6c-4.3-1.8-9.1-2.7-14.3-2.7c-6,0-11.8,1.2-17.3,3.5
	c-5.5,2.3-10.3,5.5-14.4,9.5c-4.1,4-7.4,8.7-9.8,14.1C363,190.4,361.8,196.1,361.8,202.1z"/>
<path d="M485.2,244.3l21-170.1h41.2c6.5,0,12.8,0.9,18.8,2.6c6,1.8,11.4,4.4,16,8.1c4.6,3.7,8.3,8.2,11,13.7c2.7,5.5,4,12,4,19.4
	c0,7-1.2,13.9-3.6,20.8c-2.4,6.9-6.1,13.1-11.1,18.6c-5,5.5-11.4,10-19.2,13.5c-7.8,3.5-17.2,5.2-28.1,5.2h-25.5l-8.3,68.1H485.2z
	 M511.6,160.6h25.3c8.4,0,15.4-1.4,21.1-4.3c5.6-2.9,10.1-6.3,13.5-10.5c3.3-4.1,5.7-8.5,7.1-13.1c1.4-4.6,2.1-8.7,2.1-12.1
	c0-4-0.7-7.8-2.1-11.6c-1.4-3.7-3.6-7.1-6.4-10c-2.9-2.9-6.5-5.3-10.8-7c-4.4-1.7-9.5-2.6-15.4-2.6h-25.5L511.6,160.6z"/>
<path d="M619.1,244.3H606l22.4-182.5h13.1L619.1,244.3z"/>
<path d="M650,202.1c0-7.5,1.5-14.6,4.6-21.3c3.1-6.7,7.3-12.6,12.5-17.6c5.2-5,11.2-9,18-11.9c6.7-2.9,13.8-4.4,21.1-4.4
	c4.8,0,9.1,0.6,13.1,1.9c4,1.3,7.5,3,10.5,5.1c3,2.1,5.5,4.5,7.4,7.1c1.9,2.6,3.3,5.2,4,7.7l3.3-19.8h12.1l-11.7,95.3H732l1.2-9.8
	c0.3-1.7,0.6-3.4,0.7-5c0.2-1.6,0.4-3.1,0.7-4.5c-1.4,2.7-3.4,5.3-6,7.7c-2.5,2.5-5.6,4.7-9.1,6.8c-3.5,2.1-7.4,3.7-11.7,4.9
	c-4.3,1.2-8.9,1.8-13.8,1.8c-6.7,0-12.7-1.2-18.1-3.5c-5.4-2.3-10-5.4-13.8-9.4c-3.8-4-6.8-8.7-8.9-14.1
	C651.1,213.8,650,208.1,650,202.1z M663.1,200.2c0,4.8,0.8,9.1,2.4,13.1c1.6,4,3.8,7.5,6.8,10.5c2.9,3,6.4,5.4,10.5,7
	c4,1.7,8.5,2.5,13.5,2.5c5.7,0,11.1-1.1,16.2-3.2c5.1-2.1,9.5-5,13.3-8.7c3.8-3.7,6.8-8,9.1-13c2.2-5,3.3-10.3,3.3-15.8
	c0-4.6-0.8-8.9-2.4-13c-1.6-4-3.8-7.5-6.7-10.5c-2.9-2.9-6.3-5.2-10.4-6.9c-4-1.7-8.5-2.5-13.5-2.5c-5.7,0-11.1,1-16.2,3.1
	c-5.1,2.1-9.5,4.9-13.3,8.6c-3.8,3.7-6.9,7.9-9.2,12.9C664.3,189.1,663.1,194.5,663.1,200.2z"/>
<path d="M788.7,149h11.2l-1.9,24.5c4.6-7.9,10.6-14.4,18-19.3c7.4-4.9,15.8-7.4,25.4-7.4c9.4,0,16.5,2.6,21.3,7.9
	c4.8,5.2,6.9,12.1,6.1,20.7l-8.3,68.8h-13.1l7.9-64.3c0.5-5.4-0.8-10-3.9-13.8c-3.1-3.8-8.1-5.9-15.1-6.2c-5.1,0-9.9,0.8-14.4,2.5
	c-4.5,1.7-8.6,4-12.1,7c-3.6,3-6.5,6.6-8.8,10.7c-2.3,4.1-3.8,8.7-4.4,13.6l-6.2,50.5H777L788.7,149z"/>
<circle id="circle8252" class="st1" cx="273.4" cy="120.1" r="11.6"/>
</svg>
